<svg xmlns="http://www.w3.org/2000/svg" viewBox="0 0 106.6 106.7"><defs><style>.cls-1{fill:#ff7b7b;fill-rule:evenodd;}</style></defs><title>导航下拉</title><g id="图层_2" data-name="图层 2"><g id="图层_1-2" data-name="图层 1"><path class="cls-1" d="M96.32,19.87H92.57A15.27,15.27,0,0,0,95,10.73c-.22-2.38-1.35-5.79-5.49-8.51C86.12,0,81.71-.58,76.81.64c-7.94,2-17.33,8.85-23.51,17.13C47.12,9.48,37.73,2.63,29.79.64,24.89-.59,20.47,0,17,2.23a11.26,11.26,0,0,0-5.49,8.51A15.22,15.22,0,0,0,14,19.87H10.28A10.3,10.3,0,0,0,0,30.16V43.41a10.28,10.28,0,0,0,7.24,9.78,10.17,10.17,0,0,0-.62,3.47V96.42A10.3,10.3,0,0,0,16.91,106.7H89.7A10.3,10.3,0,0,0,100,96.42V56.66a10.12,10.12,0,0,0-.61-3.47,10.29,10.29,0,0,0,7.23-9.78V30.16A10.3,10.3,0,0,0,96.32,19.87ZM89.7,99.38H57V53.7H89.7a3,3,0,0,1,3,3V96.42a3,3,0,0,1-3,3ZM61,19.87c5.21-6,12-10.73,17.59-12.12,2.88-.72,5.24-.52,6.95.6s2.14,2.26,2.21,3.06c.29,2.94-2.87,6.91-4.36,8.46H61M99.27,30.16V43.41a3,3,0,0,1-3,3H57V27.2H96.32a3,3,0,0,1,3,3ZM49.64,53.7V99.38H16.91a3,3,0,0,1-3-3V56.66a3,3,0,0,1,3-3H49.64M18.85,11.41c.07-.8.4-1.87,2.21-3.06s4.05-1.33,7-.6c5.52,1.38,12.35,6.11,17.57,12.12H23.21c-1.34-1.35-4.64-5.45-4.35-8.46ZM7.32,30.16a3,3,0,0,1,3-3H49.64V46.37H10.28a3,3,0,0,1-3-3V30.16"/></g></g></svg>