<svg xmlns="http://www.w3.org/2000/svg" viewBox="0 0 30.05 30.09"><defs><style>.cls-1{fill:#ff7b7b;fill-rule:evenodd;}</style></defs><title>网银</title><g id="图层_2" data-name="图层 2"><g id="图层_1-2" data-name="图层 1"><path class="cls-1" d="M26.92,30.09H16.22V15.16h10.7a1,1,0,0,1,1,1v13a1,1,0,0,1-1,1Z"/><path class="cls-1" d="M17.54,4.1a12.61,12.61,0,0,1,5.75-4,2.82,2.82,0,0,1,2.27.2,1.3,1.3,0,0,1,.72,1c.09,1-.94,2.26-1.42,2.76H17.54"/><path class="cls-1" d="M30.05,7.46v4.33a1,1,0,0,1-1,1H16.22V6.5H29.09a1,1,0,0,1,1,1Z"/><path class="cls-1" d="M13.83,15.16V30.09H3.13a1,1,0,0,1-1-1v-13a1,1,0,0,1,1-1h10.7"/><path class="cls-1" d="M3.77,1.34a1.3,1.3,0,0,1,.72-1A2.8,2.8,0,0,1,6.76.14a12.62,12.62,0,0,1,5.74,4H5.19c-.44-.44-1.52-1.78-1.42-2.76Z"/><path class="cls-1" d="M0,7.46a1,1,0,0,1,1-1H13.83v6.26H1a1,1,0,0,1-1-1V7.46"/></g></g></svg>